<?xml version="1.0" encoding="UTF-8" standalone="no"?>
<!DOCTYPE svg PUBLIC "-//W3C//DTD SVG 1.1//EN" "http://www.w3.org/Graphics/SVG/1.1/DTD/svg11.dtd">
<!-- Created with Vectornator (http://vectornator.io/) -->
<svg height="100%" stroke-miterlimit="10" style="fill-rule:nonzero;clip-rule:evenodd;stroke-linecap:round;stroke-linejoin:round;" version="1.1" viewBox="0 0 20 20" width="100%" xml:space="preserve" xmlns="http://www.w3.org/2000/svg" xmlns:vectornator="http://vectornator.io" xmlns:xlink="http://www.w3.org/1999/xlink">
<defs/>
<g id="Oh" vectornator:layerName="Oh">
<path d="M13.1059 2.58377L17.4502 6.9281L17.4502 13.0719L13.1059 17.4162L6.96207 17.4162L2.61774 13.0719L2.61774 6.9281L6.96207 2.58377L13.1059 2.58377Z" fill="#fffb0a" fill-rule="nonzero" opacity="1" stroke="#000000" stroke-linecap="butt" stroke-linejoin="miter" stroke-width="1"/>
<path d="M7.52059 8.93777L6.44288 8.31556L6.44288 7.07114L7.52059 6.44892L8.59829 7.07114L8.59829 8.31556L7.52059 8.93777Z" fill="#000000" fill-rule="nonzero" opacity="1" stroke="#000000" stroke-linecap="butt" stroke-linejoin="miter" stroke-width="0.942677"/>
<path d="M12.528 8.93777L11.4503 8.31556L11.4503 7.07114L12.528 6.44892L13.6057 7.07114L13.6057 8.31556L12.528 8.93777Z" fill="#000000" fill-rule="nonzero" opacity="1" stroke="#000000" stroke-linecap="butt" stroke-linejoin="miter" stroke-width="0.942677"/>
<path d="M11.034 11.5355L12.0341 13.2677L11.034 14.9998L9.03392 14.9998L8.03387 13.2677L9.03392 11.5355L11.034 11.5355Z" fill="none" opacity="1" stroke="#000000" stroke-linecap="butt" stroke-linejoin="miter" stroke-width="0.942677"/>
</g>
</svg>
